<?xml version="1.0" standalone="no"?>
<!DOCTYPE svg PUBLIC "-//W3C//DTD SVG 20010904//EN"
 "http://www.w3.org/TR/2001/REC-SVG-20010904/DTD/svg10.dtd">
<svg version="1.0" xmlns="http://www.w3.org/2000/svg"
 width="160.000000pt" height="160.000000pt" viewBox="0 0 160.000000 160.000000"
 preserveAspectRatio="xMidYMid meet">
<metadata>
Created by potrace 1.11, written by Peter Selinger 2001-2013
</metadata>
<g transform="translate(0.000000,160.000000) scale(0.100000,-0.100000)"
fill="#000000" stroke="none">
<path d="M1422 1588 c-26 -26 -8 -69 32 -76 14 -3 17 1 13 12 -4 9 -2 16 2 16
5 0 11 -5 13 -12 3 -7 7 -6 11 5 8 21 -22 24 -41 5 -10 -10 -15 -10 -22 2 -15
23 -12 34 5 20 10 -9 15 -9 15 -1 0 6 -5 11 -11 11 -6 0 -9 7 -5 15 7 18 4 19
-12 3z"/>
<path d="M1450 1589 c0 -4 9 -13 20 -19 16 -8 20 -8 20 3 0 8 -9 17 -20 20
-11 3 -20 1 -20 -4z"/>
<path d="M1138 1568 c-24 -19 -37 -59 -27 -86 7 -18 4 -28 -14 -46 -27 -29
-77 -84 -182 -201 -44 -50 -105 -117 -135 -150 -30 -32 -59 -64 -65 -71 -11
-12 -161 -176 -208 -228 -16 -17 -50 -54 -75 -82 -26 -28 -93 -100 -148 -160
-172 -186 -183 -199 -184 -211 0 -7 -4 -13 -8 -13 -12 0 -32 -70 -32 -111 0
-42 30 -107 61 -136 32 -29 90 -53 129 -53 78 0 111 29 557 500 45 47 103 108
129 136 27 28 117 122 199 209 302 318 297 313 335 319 71 10 84 67 35 152
-83 142 -304 281 -367 232z m267 -153 c24 -25 41 -45 37 -45 -4 0 -1 -4 7 -9
13 -8 24 -51 14 -51 -6 0 -52 54 -53 62 0 12 -47 58 -59 58 -6 0 -11 5 -11 10
0 6 -11 15 -24 22 -14 6 -27 17 -30 24 -10 25 71 -23 119 -71z m-95 -7 c0 -4
5 -8 11 -8 16 0 64 -52 83 -89 14 -27 14 -30 1 -25 -10 4 -15 0 -15 -10 0 -9
-4 -16 -10 -16 -5 0 -7 7 -4 15 4 8 1 15 -5 15 -6 0 -11 -6 -12 -12 0 -10 -2
-10 -6 0 -2 6 -11 12 -20 12 -8 0 -32 17 -54 38 -30 30 -36 41 -26 51 9 10 8
11 -8 6 -17 -6 -16 -4 4 13 13 11 21 24 17 31 -5 8 -1 8 18 -1 14 -6 26 -15
26 -20z m-208 -11 c-12 -13 -19 -27 -15 -32 5 -4 2 -5 -5 -1 -11 6 -8 13 9 32
12 13 25 24 27 24 3 0 -4 -10 -16 -23z m-51 -74 c13 -16 12 -17 -3 -4 -14 11
-18 11 -18 1 0 -8 -3 -11 -6 -7 -5 5 3 27 10 27 2 0 10 -8 17 -17z m211 -44
c9 -9 32 -26 52 -38 20 -13 36 -27 36 -32 0 -6 3 -8 8 -5 4 2 17 -1 29 -7 29
-16 15 -40 -26 -43 -24 -1 -29 2 -28 17 1 11 6 17 12 15 5 -2 9 -9 7 -16 -3
-11 0 -11 13 0 26 21 -12 38 -46 19 -12 -6 -19 -5 -22 4 -2 6 -3 5 -3 -3 1 -9
9 -14 21 -12 16 3 17 2 6 -12 -10 -12 -17 -13 -27 -5 -7 6 -18 8 -23 4 -7 -3
-8 0 -5 9 4 11 0 16 -11 16 -9 0 -13 -4 -10 -10 11 -17 -7 -11 -22 8 -13 16
-14 16 -8 -4 5 -19 2 -20 -57 -19 -35 1 -72 6 -82 10 -14 6 -17 5 -12 -3 5 -8
2 -10 -9 -6 -13 5 -8 13 22 40 21 19 34 34 28 34 -5 0 -3 5 5 10 11 7 17 5 22
-8 6 -16 7 -16 7 0 1 11 6 15 16 12 12 -5 15 2 15 31 0 28 3 36 14 32 11 -4
13 -1 9 11 -6 16 21 -3 69 -49z m-247 21 c3 -5 -1 -10 -10 -10 -9 0 -13 5 -10
10 3 6 8 10 10 10 2 0 7 -4 10 -10z m473 -25 c-3 -3 -9 2 -12 12 -6 14 -5 15
5 6 7 -7 10 -15 7 -18z m-328 5 c0 -5 -5 -10 -11 -10 -5 0 -7 5 -4 10 3 6 8
10 11 10 2 0 4 -4 4 -10z m-165 -10 c-3 -5 -12 -10 -18 -10 -7 0 -6 4 3 10 19
12 23 12 15 0z m-30 -31 c-4 -5 -12 -9 -18 -8 -9 0 -8 2 1 6 6 2 9 10 6 15 -4
7 -2 8 5 4 6 -4 9 -12 6 -17z m-42 -44 c-10 -13 -25 -27 -33 -30 -8 -4 -2 8
14 24 36 37 43 40 19 6z"/>
<path d="M1315 1350 c-10 -17 4 -47 25 -53 11 -3 18 -1 14 4 -3 5 2 9 11 9 9
0 15 6 12 13 -2 6 -10 11 -17 9 -11 -3 -11 0 0 12 10 13 10 16 -3 16 -11 0
-14 -7 -11 -25 2 -14 0 -25 -6 -25 -10 0 -14 13 -11 38 2 15 -5 16 -14 2z"/>
<path d="M1080 1186 c0 -2 7 -6 15 -10 8 -3 15 -1 15 4 0 6 -7 10 -15 10 -8 0
-15 -2 -15 -4z"/>
<path d="M1512 1458 c-15 -18 0 -41 30 -45 l23 -3 -22 13 c-30 17 -32 29 -6
33 16 3 21 0 17 -11 -4 -8 -2 -15 4 -15 6 0 9 8 8 18 -3 21 -39 28 -54 10z"/>
<path d="M1522 1366 c-1 -15 1 -17 7 -7 5 7 15 17 22 22 10 6 8 8 -7 7 -12 -1
-21 -10 -22 -22z"/>
<path d="M1545 1360 c-3 -5 -1 -10 4 -10 6 0 11 5 11 10 0 6 -2 10 -4 10 -3 0
-8 -4 -11 -10z"/>
</g>
</svg>
